<?xml version="1.0" encoding="UTF-8"?>
<svg width="46px" height="14px" viewBox="0 0 46 14" version="1.1" xmlns="http://www.w3.org/2000/svg" xmlns:xlink="http://www.w3.org/1999/xlink">
    <!-- Generator: Sketch 47.1 (45422) - http://www.bohemiancoding.com/sketch -->
    <title>amex-logo</title>
    <desc>Created with Sketch.</desc>
    <defs></defs>
    <g id="Checkout" stroke="none" stroke-width="1" fill="none" fill-rule="evenodd">
        <g id="Checkout-5-(desktop)" transform="translate(-1328.000000, -1164.000000)" fill="#00205B">
            <g id="order-sumary-right-copy" transform="translate(1196.000000, 1093.000000)">
                <g id="Group-2" transform="translate(0.000000, 57.000000)">
                    <g id="70x50">
                        <g id="amex" transform="translate(126.000000, 0.000000)">
                            <path d="M49.5566538,27.1012347 L47.054325,27.1012347 L47.054325,25.8322048 L49.2382528,25.8322048 C49.2382528,25.8322048 50.0345586,25.9254372 50.0345586,25.3957345 C50.0345586,24.8992867 48.844042,24.9378861 48.844042,24.9378861 C48.844042,24.9378861 46.9039184,25.105942 46.9039184,23.2965203 C46.9039184,21.4965999 48.6566403,21.5993337 48.6566403,21.5993337 L51.3481903,21.5993337 L51.3481903,22.8861788 L49.1818503,22.8861788 C49.1818503,22.8861788 48.4316369,22.735938 48.4316369,23.2787051 C48.4316369,23.7335844 49.4535526,23.6688561 49.4535526,23.6688561 C49.4535526,23.6688561 51.5998787,23.5108955 51.5998787,25.1706702 C51.5998787,26.9498063 50.2171085,27.1083608 49.7264677,27.1083608 C49.6209405,27.1083608 49.5566538,27.1012347 49.5566538,27.1012347 L49.5566538,27.1012347 Z M37.0723012,27.1101423 L37.0723012,21.6088351 L41.4577447,21.6088351 L41.4577447,22.8861788 L38.4866083,22.8861788 L38.4866083,23.7335844 L41.3837544,23.7335844 L41.3837544,24.9842054 L38.4866083,24.9842054 L38.4866083,25.9177173 L41.4577447,25.9177173 L41.4577447,27.1101423 L37.0723012,27.1101423 Z M44.598695,27.1012347 L42.0957597,27.1012347 L42.0957597,25.8322048 L44.2893912,25.8322048 C44.2893912,25.8322048 45.0765998,25.9254372 45.0765998,25.3957345 C45.0765998,24.8992867 43.8860832,24.9378861 43.8860832,24.9378861 C43.8860832,24.9378861 41.9459596,25.105942 41.9459596,23.2965203 C41.9459596,21.4965999 43.6986814,21.5993337 43.6986814,21.5993337 L46.3993286,21.5993337 L46.3993286,22.8861788 L44.224498,22.8861788 C44.224498,22.8861788 43.4736781,22.735938 43.4736781,23.2787051 C43.4736781,23.7335844 44.4943808,23.6688561 44.4943808,23.6688561 C44.4943808,23.6688561 46.6419199,23.5108955 46.6419199,25.1706702 C46.6419199,26.9498063 45.2591497,27.1083608 44.7685089,27.1083608 C44.6623752,27.1083608 44.598695,27.1012347 44.598695,27.1012347 L44.598695,27.1012347 Z M25.6365494,27.1107361 L24.4090376,27.1107361 L22.9183143,25.477684 L21.4191003,27.1107361 L20.5657856,27.1107361 L16.1888328,27.1107361 L16.1888328,21.5904262 L20.5657856,21.5904262 L21.3062954,21.5904262 L22.9183143,23.3434334 L24.5400369,21.5999276 L25.618355,21.5999276 L25.618355,21.5904262 L29.0297946,21.5904262 C29.0297946,21.5904262 30.8110209,21.3944599 30.8110209,23.2116015 C30.8110209,24.8345584 30.2190982,25.3387261 28.4020897,25.3387261 L27.0241713,25.3387261 L27.0241713,27.1107361 L25.6365494,27.1107361 L25.6365494,27.1107361 Z M23.8747303,24.3980881 L25.618355,26.3179636 L25.618355,22.4853387 L23.8747303,24.3980881 L23.8747303,24.3980881 Z M17.6043528,25.9171235 L20.5657856,25.9171235 L21.9534076,24.3980881 L20.5657856,22.8867726 L17.6043528,22.8867726 L17.6043528,23.7341782 L20.4911888,23.7341782 L20.4911888,24.9847992 L17.6043528,24.9847992 L17.6043528,25.9171235 L17.6043528,25.9171235 Z M27.0241713,23.9016403 L28.4766865,23.9016403 C28.8987953,23.9016403 29.2457008,23.6688561 29.2457008,23.3796575 C29.2457008,23.0916464 28.8987953,22.8576746 28.4766865,22.8576746 L27.0241713,22.8576746 L27.0241713,23.9016403 L27.0241713,23.9016403 Z M35.0102755,27.1196437 L35.0102755,26.0471738 C35.0102755,26.0471738 34.9526601,25.208082 34.0714474,25.208082 L32.7044456,25.208082 L32.7044456,27.1196437 L31.2974163,27.1196437 L31.2974163,21.6088351 L34.7100689,21.6088351 C34.7100689,21.6088351 36.4906887,21.3944599 36.4906887,23.2216968 C36.4906887,24.1730239 35.7034801,24.5085418 35.7034801,24.5085418 C35.7034801,24.5085418 36.3784902,24.8256509 36.3784902,25.7573813 L36.3784902,27.1196437 L35.0102755,27.1196437 L35.0102755,27.1196437 Z M32.7044456,23.9117355 L34.1569608,23.9117355 C34.5790696,23.9117355 34.9253686,23.6789514 34.9253686,23.3897527 C34.9253686,23.100554 34.5790696,22.8677699 34.1569608,22.8677699 L32.7044456,22.8677699 L32.7044456,23.9117355 L32.7044456,23.9117355 Z M31.6449283,19.5761306 L33.0592354,19.5761306 L33.0592354,14.047507 L31.6449283,14.047507 L31.6449283,19.5761306 Z M20.7531873,19.5571279 L20.7531873,14.0469131 L25.1398438,14.0469131 L25.1398438,15.3331644 L22.1687073,15.3331644 L22.1687073,16.1817576 L25.0652469,16.1817576 L25.0652469,17.4311909 L22.1687073,17.4311909 L22.1687073,18.3647029 L25.1398438,18.3647029 L25.1398438,19.5571279 L20.7531873,19.5571279 Z M18.5504587,19.5577217 L18.5504587,15.7530072 L16.7886397,19.5577217 L15.6357248,19.5577217 L13.8642021,15.7714162 L13.8642021,19.5577217 L12.6360839,19.5577217 L12.4486821,19.5577217 L11.0895646,19.5577217 L10.6019562,18.4015208 L8.0341277,18.4015208 L7.5374221,19.5577217 L6,19.5577217 L8.3337279,14.0463193 L10.3114531,14.0463193 L12.4486821,19.1099685 L12.4486821,14.0463193 L14.6702115,14.0463193 L16.2167308,17.4686027 L17.7535464,14.0463193 L19.9750759,14.0463193 L19.9750759,19.5577217 L18.5504587,19.5577217 Z M8.63393458,16.9929391 L10.0021493,16.9929391 L9.31804193,15.3521671 L8.63393458,16.9929391 Z M46.1725058,19.5577217 L43.9430921,15.87415 L43.9430921,19.5577217 L42.7337747,19.5577217 L42.5075584,19.5577217 L41.1872554,19.5577217 L40.6905498,18.4015208 L38.1221149,18.4015208 L37.6339,19.5577217 L36.3402821,19.5577217 L36.1061816,19.5577217 L35.4311714,19.5577217 C35.4311714,19.5577217 33.5389596,19.286932 33.5389596,16.9561212 C33.5389596,13.8972662 35.6852857,14.018409 35.7592761,14 L37.4931971,14.0463193 L37.4931971,15.2868451 L36.0697929,15.305254 C36.0697929,15.305254 35.1412748,15.305254 35.0278634,16.508368 C35.0157339,16.6473259 35.0090626,16.7732194 35.0102755,16.891393 C35.0157339,18.7542601 36.6350305,18.1764565 36.6884006,18.1586414 L38.4314188,14.0463193 L40.3988339,14.0463193 L42.5075584,19.0446464 L42.5075584,14.0463193 L44.4949872,14.0463193 L46.6977159,17.6740703 L46.6977159,14.0463193 L48.1138423,14.0463193 L48.1138423,19.5577217 L46.1725058,19.5577217 L46.1725058,19.5577217 Z M38.7219218,16.9929391 L40.090743,16.9929391 L39.4157328,15.3521671 L38.7219218,16.9929391 L38.7219218,16.9929391 Z M29.5822962,19.5577217 L29.5822962,18.4852518 C29.5822962,18.4852518 29.5265002,17.64616 28.6452874,17.64616 L27.2770727,17.64616 L27.2770727,19.5577217 L25.8706499,19.5577217 L25.8706499,14.0463193 L29.282696,14.0463193 C29.282696,14.0463193 31.0633158,13.8319441 31.0633158,15.6597748 C31.0633158,16.6111019 30.2761072,16.9466198 30.2761072,16.9466198 C30.2761072,16.9466198 30.9602145,17.2637289 30.9602145,18.1960532 L30.9602145,19.5577217 L29.5822962,19.5577217 Z M27.2770727,16.3498135 L28.7295879,16.3498135 C29.1516967,16.3498135 29.4979957,16.1164355 29.4979957,15.8272368 C29.4979957,15.538632 29.1516967,15.305254 28.7295879,15.305254 L27.2770727,15.305254 L27.2770727,16.3498135 Z" id="amex-logo"></path>
                        </g>
                    </g>
                </g>
            </g>
        </g>
    </g>
</svg>