<svg width="47" height="20" viewBox="0 0 47 20" fill="none" xmlns="http://www.w3.org/2000/svg">
<path d="M14.6945 19.8299V11.3085H16.0655V11.935C16.2733 11.6389 16.5714 11.4187 16.916 11.3085C17.2068 11.2107 17.5123 11.1617 17.8178 11.1691C18.656 11.1617 19.4625 11.5019 20.0417 12.1088C21.2539 13.3887 21.2612 15.393 20.0588 16.6827C19.7753 16.9862 19.4332 17.2285 19.0519 17.3949C18.6805 17.5564 18.2772 17.6396 17.8716 17.6396C17.5465 17.6396 17.2239 17.5882 16.916 17.483C16.5738 17.3753 16.2733 17.1698 16.0484 16.8932V19.8495H14.6945V19.8324V19.8299ZM17.7689 12.3682C17.285 12.3511 16.8182 12.5395 16.4834 12.8895C16.1315 13.2982 15.9507 13.8292 15.98 14.3676C15.9507 14.9207 16.1242 15.464 16.4663 15.8972C17.1897 16.5995 18.3408 16.5922 19.0544 15.88C19.4161 15.4885 19.6091 14.9697 19.592 14.4362C19.6165 13.8806 19.4234 13.3373 19.0544 12.9237C18.7245 12.564 18.2577 12.3609 17.7689 12.3682ZM28.8666 11.3061H30.3085L32.1829 15.6892L33.9376 11.3061H35.3795L31.7846 19.8275H30.3598L31.506 17.1306L28.8666 11.3061ZM26.6793 17.5148V16.8712C26.4594 17.1551 26.1563 17.3631 25.8117 17.461C25.5038 17.5662 25.1812 17.6176 24.8562 17.6176C24.4505 17.6176 24.0472 17.5368 23.6758 17.3729C23.2945 17.2065 22.9524 16.9642 22.6689 16.6607C22.3854 16.3573 22.1606 16.0049 22.009 15.6182C21.8526 15.2315 21.7695 14.8179 21.7671 14.3994C21.7524 13.5356 22.0824 12.7035 22.6884 12.0868C23.2701 11.4823 24.0741 11.1421 24.9124 11.147C25.2179 11.1495 25.5233 11.196 25.8142 11.2865C26.1588 11.3966 26.4569 11.6169 26.6646 11.913V11.2865H28.0357V17.4952H26.6817V17.5124L26.6793 17.5148ZM23.6758 12.9066C23.3092 13.3226 23.1161 13.8635 23.1381 14.419C23.121 14.9525 23.3141 15.4714 23.6758 15.8629C24.0057 16.2104 24.4651 16.4038 24.9441 16.4013C25.4378 16.4282 25.9217 16.2373 26.2638 15.88C26.628 15.4983 26.7502 14.9403 26.7502 14.3505C26.7771 13.8121 26.5962 13.2835 26.2467 12.8724C25.9095 12.5273 25.4451 12.3388 24.9613 12.3511C24.4749 12.356 24.0106 12.5567 23.6758 12.9091V12.9066Z" fill="#1E4BC6"/>
<path d="M40.1749 0.387446V6.84014H37.848L36.2522 1.52973H36.2098L36.2978 6.84014H34.702V0.384408H37.1169L38.6277 5.50038H38.6489L38.561 0.384408H40.178L40.1749 0.387446ZM6.67285 6.90697L7.8803 0.387446H10.7685L11.9759 6.90697H10.2315L9.34561 0.97074H9.32438L8.42031 6.90697H6.67285ZM20.3856 0.387446L20.5372 6.90697H18.899L18.8565 1.03454H18.8141L17.7371 6.90697H16.0776L15.0006 1.03454H14.9581L14.9156 6.90697H13.2774L13.4291 0.387446H16.1019L16.8997 5.37279H16.921L17.7401 0.387446H20.3886H20.3856ZM30.5821 5.91355C30.8824 5.94697 31.1585 5.73735 31.2071 5.43962C31.2253 5.35456 31.2344 5.26646 31.2283 5.1814V0.390484H32.8878V5.07506C32.8878 5.2057 32.8665 5.44266 32.8665 5.50646C32.7604 6.71558 31.7896 7.12571 30.5791 7.12571C29.3686 7.12571 28.4251 6.73685 28.3159 5.50646C28.3159 5.44266 28.2946 5.2057 28.2946 5.07506V0.390484H29.9541V5.22393C29.9511 5.31203 29.9571 5.40013 29.9753 5.48519C30.036 5.76165 30.2969 5.95001 30.5791 5.91659M3.91211 5.0538C3.96065 5.2057 3.96975 5.36975 3.93334 5.52773C3.79986 5.87406 3.41153 6.04722 3.06568 5.91659C2.83511 5.82849 2.67129 5.6219 2.64095 5.37583V4.75H0.890457V5.24519C0.890457 6.71254 2.03419 7.14697 3.26288 7.14697C4.49156 7.14697 5.4199 6.73685 5.56855 5.65836C5.62619 5.29988 5.62619 4.93836 5.56855 4.57987C5.28944 3.21885 2.81084 2.80872 2.63792 2.031C2.61668 1.91555 2.61668 1.80011 2.63792 1.68467C2.68949 1.40213 2.95646 1.21074 3.24164 1.25327C3.54502 1.22289 3.81502 1.44163 3.84536 1.74543C3.8484 1.77581 3.8484 1.80619 3.84536 1.83657V2.2467H5.46237V1.791C5.46237 0.366179 4.19121 0.150482 3.26288 0.150482C2.0979 0.150482 1.15136 0.539345 0.978437 1.59657C0.93293 1.89125 0.938998 2.18897 0.999674 2.48062C1.26058 3.84164 3.58749 4.2062 3.91211 5.05076M25.1031 5.05076C25.1516 5.2057 25.1607 5.36671 25.1243 5.52469C25.0819 5.74038 24.9302 5.95608 24.4994 5.95608C24.1838 5.99558 23.8987 5.7738 23.8562 5.45785C23.8532 5.43051 23.8501 5.40013 23.8532 5.37279V4.74696H22.1269V5.24215C22.1269 6.68824 23.2707 7.11963 24.4781 7.11963C25.6856 7.11963 26.6139 6.73077 26.7656 5.65228C26.8263 5.30291 26.8263 4.94443 26.7656 4.59506C26.4865 3.23404 24.0504 2.84822 23.8774 2.09176C23.8441 1.97935 23.8441 1.85783 23.8774 1.74543C23.926 1.46897 24.1839 1.28061 24.4599 1.31403C24.7603 1.28365 25.0303 1.50239 25.0606 1.80619C25.0636 1.83657 25.0636 1.86695 25.0606 1.89733V2.30746H26.6776V1.85479C26.6776 0.451243 25.4034 0.235546 24.4994 0.235546C23.3587 0.235546 22.4091 0.603142 22.2362 1.66036C22.1785 1.94593 22.1846 2.24062 22.2574 2.52315C22.494 3.84164 24.7785 4.2062 25.1031 5.05076ZM44.1826 5.84975C44.492 5.88013 44.7772 5.67659 44.85 5.37279C44.8682 5.2938 44.8743 5.21481 44.8712 5.13582V4.18797H44.2038V3.23708H46.5095V4.98393C46.5095 5.12975 46.5034 5.27254 46.4882 5.41532C46.3821 6.60318 45.3475 7.03457 44.1826 7.03457C43.0176 7.03457 42.0043 6.60318 41.8951 5.41532C41.8799 5.27254 41.8738 5.12671 41.8738 4.98393V2.24366C41.8738 2.13733 41.8951 1.92163 41.8951 1.81226C42.0468 0.581876 43.0176 0.193014 44.1826 0.193014C45.3475 0.193014 46.3608 0.581876 46.47 1.81226C46.4913 2.00669 46.4913 2.24366 46.4913 2.24366V2.45935H44.853V2.09176C44.853 2.00366 44.8439 1.91859 44.8318 1.83353C44.7772 1.52669 44.492 1.31707 44.1856 1.3596C43.8822 1.3353 43.6092 1.53884 43.5394 1.83353C43.5212 1.93378 43.5121 2.03707 43.5182 2.13733V5.1176C43.5121 5.19658 43.5182 5.27861 43.5394 5.35456C43.5394 5.57026 43.7123 5.85279 44.1856 5.85279" fill="#1E4BC6"/>
</svg>
