<svg width="93" height="28" viewBox="0 0 93 28" fill="none" xmlns="http://www.w3.org/2000/svg">
<path fill-rule="evenodd" clip-rule="evenodd" d="M21.0461 14.7634C21.0188 11.7314 23.5287 10.2563 23.6435 10.1876C22.222 8.11514 20.0188 7.83198 19.2446 7.8094C17.3941 7.61467 15.5992 8.91666 14.6566 8.91666C13.6951 8.91666 12.2436 7.82822 10.6791 7.8602C8.66593 7.89125 6.78256 9.05683 5.74963 10.8668C3.61791 14.5573 5.20777 19.9807 7.25011 22.9638C8.27176 24.4257 9.46556 26.056 11.0281 25.9986C12.5568 25.9365 13.1279 25.024 14.9727 25.024C16.8005 25.024 17.3367 25.9986 18.9303 25.961C20.571 25.9365 21.6039 24.4944 22.5898 23.0193C23.7705 21.3467 24.2446 19.6957 24.2634 19.611C24.2258 19.5988 21.0781 18.3974 21.0461 14.7634Z" fill="black"/>
<path fill-rule="evenodd" clip-rule="evenodd" d="M18.0365 5.84669C18.8587 4.81846 19.4213 3.41958 19.2651 2C18.0751 2.05268 16.5869 2.82315 15.7298 3.8288C14.9716 4.71498 14.2943 6.16748 14.4692 7.53344C15.806 7.63315 17.1786 6.85892 18.0365 5.84669Z" fill="black"/>
<mask id="mask0_3332_75144" style="mask-type:alpha" maskUnits="userSpaceOnUse" x="36" y="3" width="21" height="22">
<path d="M55.4924 15.53L39.2482 24.7695C38.403 25.2502 37.3282 24.9548 36.8475 24.1096C36.6966 23.8443 36.6173 23.5444 36.6173 23.2392V4.76047C36.6173 3.78819 37.4055 3 38.3778 3C38.6829 3 38.9829 3.07933 39.2481 3.2302L55.4924 12.4694C56.3375 12.9501 56.633 14.0249 56.1523 14.8701C55.9957 15.1454 55.7677 15.3734 55.4924 15.53Z" fill="url(#paint0_linear_3332_75144)"/>
</mask>
<g mask="url(#mask0_3332_75144)">
<path d="M55.4924 15.53L39.2482 24.7695C38.403 25.2502 37.3282 24.9548 36.8475 24.1096C36.6966 23.8443 36.6173 23.5444 36.6173 23.2392V4.76047C36.6173 3.78819 37.4055 3 38.3778 3C38.6829 3 38.9829 3.07933 39.2481 3.2302L55.4924 12.4694C56.3375 12.9501 56.633 14.0249 56.1523 14.8701C55.9957 15.1454 55.7677 15.3734 55.4924 15.53Z" fill="url(#paint1_linear_3332_75144)"/>
<path fill-rule="evenodd" clip-rule="evenodd" d="M36.5673 2.73193L47.7533 13.8497L36.4229 25.407L36.5673 2.73193Z" fill="url(#paint2_linear_3332_75144)"/>
<path fill-rule="evenodd" clip-rule="evenodd" d="M34.2656 0.443359L47.7505 13.8532L51.7597 10.0285L34.2656 0.443359Z" fill="url(#paint3_linear_3332_75144)"/>
<path fill-rule="evenodd" clip-rule="evenodd" d="M47.7538 13.8501L53.8915 20.0366L35.5557 26.2231L47.7538 13.8501Z" fill="url(#paint4_linear_3332_75144)"/>
</g>
<path d="M83.5744 2.5H73.4315C68.648 2.5 66.9023 4.23273 66.9023 8.97495V19.0187C66.9023 23.7609 68.648 25.4997 73.4315 25.4997H83.5683C88.3396 25.5241 90.0975 23.7853 90.0975 19.0187V8.97495C90.0975 4.23273 88.3519 2.5 83.5744 2.5Z" fill="#CE0E2D"/>
<path d="M71.2849 14.6174H71.9159V17.7842H71.2849V16.5047H69.8526V17.7842H69.2217V14.6174H69.8526V15.8969H71.2849V14.6174ZM74.8562 16.4279C74.8562 16.9461 74.6038 17.2212 74.1432 17.2212C73.6826 17.2212 73.4302 16.9333 73.4302 16.4087V14.6174H72.7993V16.4279C72.7638 16.7992 72.8898 17.1677 73.1445 17.437C73.3991 17.7062 73.7569 17.8494 74.1243 17.829C74.5008 17.8585 74.8705 17.7155 75.1319 17.4392C75.3934 17.163 75.5191 16.7825 75.4746 16.4023V14.6174H74.8436L74.8562 16.4279ZM82.1817 16.7926L81.475 14.6174H80.9513L80.2447 16.7926L79.5569 14.6174H78.8818L79.967 17.7842H80.4907L81.2037 15.705L81.9167 17.7842H82.4467L83.532 14.6174H82.901L82.1817 16.7926ZM84.6677 16.4215H85.8161V15.8457H84.6677V15.2059H86.3398V14.6302H84.0431V17.797H86.4029V17.2148H84.6677V16.4215ZM87.1537 17.7778H87.7847V14.6174H87.1537V17.7778ZM76.7428 17.1381L76.4589 17.7778H75.8279L77.2034 14.611H77.765L79.1342 17.7778H78.5032L78.2193 17.1381H76.7428ZM76.9763 16.5687H77.9101L77.4558 15.4043L76.9763 16.5687Z" fill="white"/>
<path d="M78.0093 10.2237C75.9036 10.2237 74.1957 8.4947 74.1924 6.35968H74.7307C74.8061 8.13846 76.2503 9.54119 78.0062 9.54119C79.7622 9.54119 81.2063 8.13846 81.2817 6.35968H81.8201C81.8168 8.49231 80.1125 10.2203 78.0093 10.2237Z" fill="white"/>
<defs>
<linearGradient id="paint0_linear_3332_75144" x1="56.3828" y1="14" x2="48.6915" y2="14" gradientUnits="userSpaceOnUse">
<stop stop-color="#FBDA09"/>
<stop offset="1" stop-color="#FFBC00"/>
</linearGradient>
<linearGradient id="paint1_linear_3332_75144" x1="56.3828" y1="14" x2="48.6915" y2="14" gradientUnits="userSpaceOnUse">
<stop stop-color="#FBDA09"/>
<stop offset="1" stop-color="#FFBC00"/>
</linearGradient>
<linearGradient id="paint2_linear_3332_75144" x1="40.6735" y1="15.9913" x2="44.0407" y2="14.1058" gradientUnits="userSpaceOnUse">
<stop stop-color="#01E2FF"/>
<stop offset="1" stop-color="#01C4FF"/>
</linearGradient>
<linearGradient id="paint3_linear_3332_75144" x1="37.8136" y1="4.79252" x2="47.2331" y2="12.0107" gradientUnits="userSpaceOnUse">
<stop stop-color="#28D781"/>
<stop offset="1" stop-color="#02F076"/>
</linearGradient>
<linearGradient id="paint4_linear_3332_75144" x1="49.2137" y1="18.2016" x2="39.814" y2="25.468" gradientUnits="userSpaceOnUse">
<stop stop-color="#F2414E"/>
<stop offset="1" stop-color="#E02554"/>
</linearGradient>
</defs>
</svg>
